<svg xmlns="http://www.w3.org/2000/svg" viewBox="0 0 1200 630" role="img" aria-labelledby="title desc">
  <title id="title">Scraping, Consent, and the New Public Access Fights</title>
  <desc id="desc">Editorial cover for a HB essay on scraping, consent, and public-facing data.</desc>
  <defs>
    <linearGradient id="bg" x1="0" y1="0" x2="1" y2="1">
      <stop offset="0%" stop-color="#f1eadf"/>
      <stop offset="100%" stop-color="#e4ddd1"/>
    </linearGradient>
  </defs>
  <rect width="1200" height="630" fill="url(#bg)"/>
  <g stroke="rgba(22,22,22,0.08)" stroke-width="1">
    <path d="M0 90H1200M0 180H1200M0 270H1200M0 360H1200M0 450H1200M0 540H1200"/>
    <path d="M120 0V630M240 0V630M360 0V630M480 0V630M600 0V630M720 0V630M840 0V630M960 0V630M1080 0V630"/>
  </g>
  <rect x="760" y="72" width="310" height="160" rx="24" fill="rgba(125,31,31,0.08)" stroke="rgba(125,31,31,0.18)"/>
  <text x="72" y="100" fill="#7d1f1f" font-family="'Space Grotesk', Arial, sans-serif" font-size="24" letter-spacing="6">HB / ISSUE 1 / ESSAY</text>
  <text x="72" y="230" fill="#161616" font-family="'Cormorant Garamond', Georgia, serif" font-size="72">Scraping, Consent,</text>
  <text x="72" y="306" fill="#161616" font-family="'Cormorant Garamond', Georgia, serif" font-size="72">and the New Public</text>
  <text x="72" y="382" fill="#161616" font-family="'Cormorant Garamond', Georgia, serif" font-size="72">Access Fights</text>
  <text x="74" y="510" fill="rgba(22,22,22,0.7)" font-family="'Space Grotesk', Arial, sans-serif" font-size="30">Contract, visibility, and the shrinking meaning of public space online.</text>
</svg>
